HIERARCHY
ROOT root
{
	OFFSET 0.000000 0.000000 0.000000
	CHANNELS 6 Xposition Yposition Zposition Zrotation Yrotation Xrotation
	JOINT lhip
	{
		OFFSET 0.058581 -0.082280 -0.017664
		CHANNELS 3 Zrotation Yrotation Xrotation
		JOINT lknee
		{
			OFFSET 0.043451 -0.386469 0.008037
			CHANNELS 3 Zrotation Yrotation Xrotation
			JOINT lankle
			{
				OFFSET -0.014790 -0.426874 -0.037428
				CHANNELS 3 Zrotation Yrotation Xrotation
				JOINT ltoe
				{
					OFFSET 0.041054 -0.060286 0.122042
					CHANNELS 3 Zrotation Yrotation Xrotation
					End Site
					{
						OFFSET 0.000000 0.000000 0.000000
					}
				}
			}
		}
	}
	JOINT rhip
	{
		OFFSET -0.060310 -0.090513 -0.013543
		CHANNELS 3 Zrotation Yrotation Xrotation
		JOINT rknee
		{
			OFFSET -0.043257 -0.383688 -0.004843
			CHANNELS 3 Zrotation Yrotation Xrotation
			JOINT rankle
			{
				OFFSET 0.019056 -0.420046 -0.034562
				CHANNELS 3 Zrotation Yrotation Xrotation
				JOINT rtoe
				{
					OFFSET -0.034840 -0.062106 0.130323
					CHANNELS 3 Zrotation Yrotation Xrotation
					End Site
					{
						OFFSET 0.000000 0.000000 0.000000
					}
				}
			}
		}
	}
	JOINT lowerback
	{
		OFFSET 0.004439 0.124404 -0.038385
		CHANNELS 3 Zrotation Yrotation Xrotation
		JOINT upperback
		{
			OFFSET 0.004488 0.137956 0.026820
			CHANNELS 3 Zrotation Yrotation Xrotation
			JOINT chest
			{
				OFFSET -0.002265 0.056032 0.002855
				CHANNELS 3 Zrotation Yrotation Xrotation
				JOINT lowerneck
				{
					OFFSET -0.013390 0.211636 -0.033468
					CHANNELS 3 Zrotation Yrotation Xrotation
					JOINT upperneck
					{
						OFFSET 0.010113 0.088937 0.050410
						CHANNELS 3 Zrotation Yrotation Xrotation
						End Site
						{
							OFFSET 0.000000 0.000000 0.000000
						}
					}
				}
				JOINT lclavicle
				{
					OFFSET 0.071702 0.114000 -0.018898
					CHANNELS 3 Zrotation Yrotation Xrotation
					JOINT lshoulder
					{
						OFFSET 0.122921 0.045205 -0.019046
						CHANNELS 3 Zrotation Yrotation Xrotation
						JOINT lelbow
						{
							OFFSET 0.255332 -0.015649 -0.022946
							CHANNELS 3 Zrotation Yrotation Xrotation
							JOINT lwrist
							{
								OFFSET 0.265709 0.012698 -0.007375
								CHANNELS 3 Zrotation Yrotation Xrotation
								End Site
								{
									OFFSET 0.000000 0.000000 0.000000
								}
							}
						}
					}
				}
				JOINT rclavicle
				{
					OFFSET -0.082954 0.112472 -0.023707
					CHANNELS 3 Zrotation Yrotation Xrotation
					JOINT rshoulder
					{
						OFFSET -0.113228 0.046853 -0.008472
						CHANNELS 3 Zrotation Yrotation Xrotation
						JOINT relbow
						{
							OFFSET -0.260127 -0.014369 -0.031269
							CHANNELS 3 Zrotation Yrotation Xrotation
							JOINT rwrist
							{
								OFFSET -0.269108 0.006794 -0.006027
								CHANNELS 3 Zrotation Yrotation Xrotation
								End Site
								{
									OFFSET 0.000000 0.000000 0.000000
								}
							}
						}
					}
				}
			}
		}
	}
}
MOTION
Frames: 18
Frame Time: 0.033333
0.093772 -1.989361 1.017712 177.669184 1.432946 91.837547 1.600707 3.396736 -3.459073 -5.099012 -4.864949 4.368231 2.084283 9.726114 -1.463381 0.000000 -0.000000 0.000000 1.503476 -3.543072 -3.839747 5.479615 -0.150457 3.087408 3.743539 -2.628554 -0.875980 0.000000 -0.000000 0.000000 -0.709053 3.250053 12.977036 -0.046735 0.241115 -0.954864 2.963149 0.202071 -6.030707 -3.691414 4.350081 7.297901 3.270743 8.398073 0.960463 -23.865328 -4.753493 5.507031 -56.030468 -9.395597 5.668845 14.807840 -19.140243 3.488745 14.292058 -5.231786 -6.116281 19.393574 3.787136 6.810493 56.204380 4.696328 12.341060 -7.394352 30.980544 15.600402 -3.005170 3.627434 -5.952023 
0.092873 -1.989901 1.017332 177.582929 1.437154 91.897015 1.517179 3.347038 -3.686513 -5.129074 -4.680621 4.482682 1.866753 9.782618 -1.357321 0.000000 -0.000000 0.000000 1.305983 -3.396023 -3.927320 5.647545 -0.748543 2.852516 4.194203 -2.483220 -0.636580 0.000000 -0.000000 0.000000 -0.502746 3.139651 13.408687 -0.100877 -0.019118 -1.060581 2.702531 0.385066 -6.425866 -3.398624 4.495902 7.067756 3.171290 8.049330 1.442999 -23.349268 -4.395733 5.179573 -56.243811 -9.619252 5.837623 14.607578 -19.585272 4.089085 11.954695 -4.996509 -7.077324 19.051804 3.812192 6.867909 56.809549 4.890721 12.756233 -7.669443 30.686395 15.763617 -2.610657 3.501808 -6.374145 
0.092203 -1.989637 1.016997 177.612516 1.445112 91.956813 1.533900 3.064709 -3.756073 -5.263778 -4.743328 4.641903 1.634666 9.573641 -1.812490 0.000000 -0.000000 0.000000 1.122506 -3.481484 -3.836104 5.791237 -1.185036 2.632756 4.444695 -2.112933 -0.322606 0.000000 -0.000000 0.000000 -0.314492 2.817695 14.000558 -0.160163 -0.356478 -1.883096 2.363587 0.584970 -6.470697 -3.050983 4.899086 6.835280 3.318098 7.761335 1.945285 -22.763350 -3.748794 4.741379 -56.445076 -9.594580 6.151504 14.484305 -20.130117 4.709641 9.401977 -5.182141 -8.040975 19.071004 3.781587 7.053568 57.191035 4.856393 13.155670 -8.100133 30.236926 15.667269 -1.605863 3.612398 -6.169248 
0.090799 -1.989942 1.016937 177.590415 1.448697 91.929364 1.426880 3.151630 -3.791414 -5.329308 -4.513989 4.477027 1.438042 9.870401 -1.728278 0.000000 -0.000000 0.000000 0.937516 -3.393873 -3.912616 5.853303 -1.684820 2.699807 4.768249 -1.794000 -0.198003 0.000000 -0.000000 0.000000 -0.071659 2.538052 14.552686 -0.334489 -0.565683 -2.379428 2.022326 0.799914 -6.705278 -2.914708 5.424849 6.778361 3.610478 7.461228 2.233575 -21.896242 -3.280990 4.333720 -56.848957 -9.656085 6.538407 14.266865 -21.094697 5.813045 7.106837 -5.627268 -10.040221 18.834327 3.667046 7.179902 57.894438 4.827228 13.208343 -8.350915 29.148849 16.055834 -0.576058 3.434092 -5.823508 
0.090377 -1.989975 1.016851 177.574577 1.450388 91.925957 1.395282 3.136128 -3.795510 -5.369687 -4.527515 4.494074 1.423432 9.908075 -1.879583 0.000000 -0.000000 0.000000 0.923728 -3.375735 -3.963383 5.807534 -1.664489 2.800786 4.804299 -1.819303 -0.161007 0.000000 -0.000000 0.000000 -0.086735 2.543161 14.581358 -0.354426 -0.528328 -2.493931 2.040877 0.776952 -6.701345 -2.882561 5.279758 6.887853 3.746217 7.392881 2.210753 -21.831461 -3.244621 4.292177 -56.905392 -9.733895 6.620972 14.252824 -21.263436 5.821632 7.219690 -5.594580 -10.072010 18.771589 3.618876 7.129220 57.898398 4.723571 13.208823 -8.150233 28.795069 16.228572 -0.591522 3.549938 -5.781401 
0.089497 -1.989435 1.016552 177.609769 1.533640 91.792952 1.470972 3.100639 -3.519291 -5.499136 -4.680763 4.332265 1.229503 9.883971 -2.130854 0.000000 -0.000000 0.000000 0.942217 -3.454687 -3.857000 5.782089 -1.649677 2.963086 4.776073 -1.739052 -0.379112 0.000000 -0.000000 0.000000 -0.124950 2.548028 14.287783 -0.294531 -0.537737 -2.167728 2.105800 0.820465 -6.720827 -3.000459 5.301920 7.271996 3.881627 7.409024 1.895787 -21.907599 -3.446901 4.518836 -56.909172 -9.930476 6.551444 14.402541 -21.547053 5.733380 7.470991 -5.632941 -10.027947 18.702322 3.682591 7.092294 57.911058 4.514368 12.940324 -8.026667 28.118507 16.525998 -0.631411 3.876607 -5.961220 
0.088523 -1.988759 1.016603 177.722366 1.622844 91.651960 1.552312 3.220149 -3.120136 -5.619533 -4.750536 3.963412 1.114050 9.909910 -2.553327 0.000000 -0.000000 0.000000 0.873903 -3.672991 -3.580394 5.906158 -1.641215 2.879921 4.932876 -1.647765 -0.404116 0.000000 -0.000000 0.000000 -0.167589 2.530053 14.030216 -0.171811 -0.676003 -1.939737 2.096749 0.901128 -6.814305 -3.016744 5.409679 7.749892 3.968998 7.546434 1.652775 -21.998157 -3.456509 4.664809 -56.871009 -9.953894 6.597972 14.559128 -21.863678 5.425026 7.379533 -5.659992 -9.985790 18.873763 3.634943 7.301838 57.736831 4.304804 12.769145 -8.148404 27.643457 16.393520 -0.261378 3.599537 -5.426054 
0.087570 -1.988990 1.016435 177.671440 1.649639 91.513426 1.496275 3.109020 -3.067577 -5.710790 -4.875193 4.126956 1.141478 10.048566 -2.584400 0.000000 -0.000000 0.000000 0.871523 -3.584022 -3.525943 5.842256 -1.608978 3.031066 4.765191 -1.816103 -0.538371 0.000000 -0.000000 0.000000 -0.248666 2.550018 13.916448 -0.115662 -0.651031 -1.671060 2.129579 0.884954 -6.804056 -3.003521 5.377497 7.551928 3.962199 7.590958 1.547348 -21.966659 -3.342686 4.573891 -56.953477 -10.034601 6.524092 14.518948 -22.010791 5.339337 7.655388 -5.587791 -9.826462 18.736950 3.565286 7.297036 57.769625 4.140282 12.698702 -8.172446 27.449490 16.354796 -0.443718 3.275371 -5.464542 
0.086537 -1.988756 1.016134 177.655339 1.704418 91.481532 1.502130 3.094908 -2.880330 -5.783443 -4.873076 4.035770 1.088439 9.908597 -3.015146 0.000000 -0.000000 0.000000 0.869319 -3.637716 -3.512845 5.776151 -1.589032 3.121120 4.853270 -1.736369 -0.598136 0.000000 -0.000000 0.000000 -0.323714 2.382794 14.132839 -0.044274 -0.599396 -2.128672 2.203595 0.959355 -6.711994 -2.855851 5.149616 7.249913 3.919570 7.488439 1.791715 -22.075619 -3.015149 4.437122 -57.069647 -9.883449 6.623121 14.594151 -21.868663 5.377683 7.619835 -5.771424 -9.698864 18.719227 3.290478 7.210787 57.683553 3.949816 12.706933 -8.155827 27.171955 16.271397 -0.366630 3.555960 -5.276061 
0.085592 -1.989169 1.015914 177.672337 1.750692 91.441969 1.554717 3.224666 -2.795169 -5.992525 -5.054977 4.115029 1.011461 9.851914 -2.970019 0.000000 -0.000000 0.000000 0.836583 -3.705432 -3.632728 5.797990 -1.719148 3.349800 4.855260 -1.700685 -0.822757 0.000000 -0.000000 0.000000 -0.277813 2.294146 14.174598 -0.054203 -0.623958 -2.119725 2.187637 1.015630 -6.655896 -2.859770 5.010398 7.075801 3.953735 7.383693 1.654007 -22.139626 -2.955142 4.399093 -57.085196 -9.744870 6.641459 14.682120 -21.746812 5.397437 7.650034 -5.760511 -9.708742 18.698904 3.195338 7.157545 57.613422 3.799041 12.584255 -8.129639 27.150226 16.362629 -0.322366 3.794790 -5.541744 
0.084558 -1.989436 1.015952 177.664720 1.773543 91.358616 1.529101 3.423902 -2.556583 -6.063805 -5.242567 3.895083 0.803342 9.860617 -3.257224 0.000000 -0.000000 0.000000 0.775190 -3.741742 -3.542211 5.809619 -1.723298 3.316761 4.818644 -1.666070 -0.754022 0.000000 -0.000000 0.000000 -0.019390 2.326560 14.344857 -0.220953 -0.627651 -2.185277 2.069937 0.899740 -6.733194 -2.948880 5.140228 7.352190 3.925247 7.579063 1.392884 -22.174284 -2.946148 4.335017 -56.976917 -9.446997 6.622642 14.547490 -21.433331 5.498057 7.806921 -5.797004 -9.744537 18.731073 3.092998 7.107196 57.660258 3.708072 12.540483 -8.118655 27.064614 16.336238 -0.524553 3.613005 -5.453290 
0.083631 -1.989715 1.015825 177.600528 1.841713 91.391338 1.584449 3.383903 -2.482603 -6.131368 -5.256205 3.593100 0.623826 9.848420 -3.775405 0.000000 -0.000000 0.000000 0.870894 -3.628507 -3.729066 5.666237 -1.729432 3.516540 4.820201 -1.707604 -0.853348 0.000000 -0.000000 0.000000 -0.008612 2.235772 14.262937 -0.181023 -0.577163 -2.208916 2.041962 0.964252 -6.831198 -2.931224 5.253857 7.734255 4.107943 7.588887 1.372788 -22.339391 -3.097756 4.613440 -56.854237 -9.207387 6.615496 14.616386 -20.984604 5.212107 7.968441 -5.667602 -9.475788 18.879606 3.220850 7.253222 57.508935 3.595587 12.521186 -8.003100 26.800090 16.227461 -0.867813 3.945717 -5.508500 
0.082783 -1.989821 1.015548 177.516774 1.831510 91.356047 1.544827 3.354282 -2.182132 -6.156677 -5.410664 3.077954 0.440903 9.854115 -4.147289 0.000000 -0.000000 0.000000 0.858996 -3.542242 -3.808300 5.558554 -1.692194 3.613308 4.839738 -1.615332 -0.931376 0.000000 -0.000000 0.000000 -0.080576 2.289169 14.217487 -0.142360 -0.569870 -2.043975 2.078738 1.008808 -6.931956 -2.981811 5.322497 7.954360 4.093435 7.605789 1.112268 -22.332580 -3.101828 4.660433 -56.878590 -9.027545 6.569902 14.578342 -20.716912 5.124501 7.634505 -5.552704 -9.359129 18.914798 3.264262 7.333554 57.516094 3.639118 12.456565 -8.099982 26.729802 16.066393 -0.493563 3.545500 -5.156402 
0.081880 -1.990323 1.015206 177.536787 1.864352 91.391706 1.495613 3.593968 -2.267426 -5.995247 -5.291631 2.873676 0.532701 9.998211 -2.883577 0.000000 -0.000000 0.000000 0.873661 -3.528344 -4.022390 5.516461 -1.742942 3.833167 4.572745 -1.671224 -1.025085 0.000000 -0.000000 0.000000 0.019195 2.283142 14.149273 -0.180649 -0.582756 -2.009570 2.076439 0.990780 -6.881276 -2.981932 5.285360 7.903745 4.136909 7.617594 1.228090 -22.286457 -3.148161 4.647850 -57.022301 -8.933686 6.382396 14.665482 -20.399531 5.157237 7.322325 -4.898634 -9.015108 18.857558 3.326889 7.477032 57.595200 3.709263 12.297234 -8.141564 27.027578 16.178804 -0.207332 3.063017 -5.426052 
0.081110 -1.990697 1.015268 177.556143 1.874630 91.356097 1.452924 3.669743 -2.091973 -5.960832 -5.336222 2.617249 0.787260 9.988935 -2.525773 0.000000 -0.000000 0.000000 0.861518 -3.423750 -4.041389 5.454738 -1.784430 3.923841 4.557566 -1.694734 -1.252473 0.000000 -0.000000 0.000000 0.142693 2.177289 14.378534 -0.280333 -0.566555 -2.209625 2.045398 0.952377 -6.944431 -2.965050 5.465489 7.975579 4.185122 7.840179 1.361094 -22.230841 -2.968323 4.572552 -57.012642 -8.691108 6.219521 14.554072 -20.236179 5.296183 7.065565 -4.914505 -8.887794 18.921983 3.400516 7.327539 57.596731 3.528408 12.428039 -7.956766 27.181419 16.303711 -0.224828 3.353342 -5.354742 
0.080545 -1.991153 1.015308 177.555436 1.917438 91.345295 1.459492 3.727067 -2.045299 -5.932617 -5.299591 2.502685 0.717344 9.973500 -2.517330 0.000000 -0.000000 0.000000 0.869082 -3.286174 -3.977649 5.478914 -1.817943 3.756372 4.599617 -1.801547 -1.197064 0.000000 -0.000000 0.000000 0.137383 2.160318 14.299127 -0.235175 -0.543901 -2.050934 2.081075 0.987502 -6.873094 -2.904437 5.490678 7.868732 4.186844 7.872137 1.312867 -22.243566 -3.060901 4.728651 -57.077946 -8.719588 6.081723 14.769752 -19.743829 5.208056 7.157370 -5.412022 -9.160056 18.894627 3.467619 7.487171 57.661784 3.724842 12.363981 -8.043888 27.463519 16.298382 -0.372266 3.696278 -5.598952 
0.079987 -1.991760 1.015322 177.577562 1.949832 91.383398 1.484774 3.775398 -2.061272 -5.976356 -5.383721 2.305040 0.735514 10.021292 -2.527646 0.000000 -0.000000 0.000000 0.858498 -3.273633 -4.143446 5.474939 -1.851610 3.934526 4.565772 -1.884954 -1.264994 0.000000 -0.000000 0.000000 0.205022 2.140297 14.422875 -0.263842 -0.479182 -2.209628 2.072872 0.906298 -6.764710 -2.821702 5.555017 7.773090 4.159692 7.954857 1.202542 -22.158308 -2.960982 4.632159 -57.105807 -8.679383 6.159998 14.812373 -19.596378 5.357415 7.242471 -5.220400 -9.495115 18.919612 3.406580 7.402038 57.706072 3.821221 12.521228 -7.995176 27.766380 16.402237 -0.686848 3.622995 -5.889870 
0.079243 -1.992502 1.015372 177.626500 1.930614 91.409557 1.387072 3.584972 -2.200445 -6.013333 -5.402768 2.471301 0.927071 10.078243 -2.482446 0.000000 -0.000000 0.000000 0.780851 -3.372334 -4.222276 5.523620 -1.845892 3.895159 4.489088 -1.807674 -1.131794 0.000000 -0.000000 0.000000 0.221603 2.225894 14.244855 -0.265187 -0.515048 -1.872335 2.067882 0.855453 -6.724227 -2.704707 5.654466 7.795595 4.180308 8.050839 1.062806 -22.233370 -3.168331 4.589107 -56.984339 -8.750810 6.129918 14.994615 -19.061570 4.751117 7.431903 -4.762946 -8.898185 19.070448 3.594146 7.303745 57.512738 4.112013 12.593992 -7.665872 27.922149 16.651345 -0.398861 3.651541 -5.942457 
